<?xml version="1.0" standalone="no"?>
<!DOCTYPE svg PUBLIC "-//W3C//DTD SVG 20010904//EN"
 "http://www.w3.org/TR/2001/REC-SVG-20010904/DTD/svg10.dtd">
<svg version="1.0" xmlns="http://www.w3.org/2000/svg"
 width="200.000000pt" height="200.000000pt" viewBox="0 0 200.000000 200.000000"
 preserveAspectRatio="xMidYMid meet">
<metadata>
Created by potrace 1.14, written by Peter Selinger 2001-2017
</metadata>
<g transform="translate(0.000000,200.000000) scale(0.100000,-0.100000)"
fill="#000000" stroke="none">
<path d="M0 1000 l0 -1000 604 0 605 0 21 30 21 30 -23 9 c-20 8 -21 10 -5 16
9 4 17 13 17 21 0 8 4 14 9 14 4 0 22 13 38 29 18 17 47 32 71 36 22 3 48 13
59 20 10 8 24 15 31 15 8 0 27 9 44 21 16 12 32 19 35 16 7 -8 -68 -77 -83
-77 -6 0 -17 -7 -25 -16 -10 -13 -10 -19 0 -36 11 -17 9 -23 -9 -43 -24 -25
-20 -45 9 -45 15 0 61 49 61 64 0 6 91 149 100 156 3 3 13 17 23 33 10 15 22
27 27 27 18 0 10 -31 -14 -55 -33 -33 -86 -116 -125 -194 -17 -35 -31 -66 -31
-68 0 -1 122 -3 270 -3 l270 0 0 108 c0 73 -3 102 -10 92 -8 -12 -10 -10 -10
9 0 31 -48 94 -66 87 -8 -3 -11 0 -8 9 3 7 0 24 -7 37 -7 13 -12 28 -10 33 1
6 -1 7 -5 2 -11 -10 -44 22 -38 38 3 7 1 16 -5 20 -6 3 -11 11 -11 18 0 6 13
-2 28 -18 16 -17 54 -55 85 -85 l57 -54 0 852 0 852 -360 0 -359 0 19 -42 c11
-24 20 -55 20 -70 0 -15 7 -33 15 -42 17 -16 35 -59 35 -82 0 -11 -6 -13 -20
-9 -14 5 -20 2 -20 -9 0 -10 25 -28 61 -46 34 -16 67 -34 75 -41 14 -11 32
-66 39 -117 2 -15 10 -46 19 -70 8 -24 16 -60 17 -80 2 -20 7 -43 13 -50 7 -9
6 -16 -2 -21 -16 -10 -11 -51 7 -51 12 0 12 -3 3 -12 -14 -14 -16 -28 -4 -28
16 0 41 74 41 117 0 24 3 48 6 53 4 6 3 16 -2 23 -5 7 -8 18 -7 25 1 6 2 22 3
35 1 16 4 18 10 9 6 -10 13 -4 25 21 9 19 16 38 16 42 0 4 7 22 16 41 13 28
19 32 31 23 16 -14 63 6 63 27 0 17 58 64 80 64 10 0 32 -12 49 -26 48 -40 65
-136 36 -199 l-14 -30 7 35 c22 110 -3 180 -63 180 l-34 0 24 -25 c26 -25 30
-48 28 -164 -1 -36 -9 -69 -27 -104 -34 -64 -6 -43 36 28 16 27 26 39 22 25
-19 -70 -74 -137 -151 -187 -56 -35 -58 -41 -68 -148 -2 -27 -8 -75 -12 -105
-10 -70 -7 -341 4 -349 4 -3 15 -15 23 -25 13 -18 13 -19 0 -14 -12 4 -16 -2
-18 -24 -1 -16 2 -27 6 -24 5 3 7 -18 5 -46 -3 -44 -11 -61 -56 -115 -28 -36
-53 -60 -55 -54 -8 23 -24 10 -18 -14 5 -18 1 -27 -14 -35 -16 -9 -18 -8 -14
5 4 10 0 15 -11 15 -9 0 -19 -8 -21 -17 -3 -10 -27 -30 -55 -45 -43 -25 -49
-26 -50 -10 -1 9 -2 22 -3 27 -1 6 -5 33 -10 60 -12 78 -15 85 -34 78 -16 -6
-16 -5 1 11 20 21 22 32 5 39 -10 4 -10 8 0 15 18 12 17 21 -5 38 -17 13 -17
15 0 25 9 5 17 15 17 21 0 6 8 20 17 30 14 16 15 23 5 38 -10 16 -8 21 11 32
12 7 25 11 30 10 4 -1 6 1 5 5 -3 15 22 58 62 108 56 70 100 188 99 262 -1 32
-3 50 -6 41 -2 -10 -9 -18 -14 -18 -6 0 -7 9 -4 20 4 11 2 20 -4 20 -16 0 -43
-65 -46 -112 -5 -64 -5 -64 -14 -50 -10 16 -56 -41 -67 -82 -3 -14 -10 -23
-15 -20 -5 3 -6 10 -3 16 5 8 1 9 -10 5 -30 -12 -38 3 -14 23 28 23 16 26 -17
4 -13 -8 -21 -22 -19 -29 3 -7 0 -24 -7 -37 -7 -13 -12 -35 -11 -51 3 -31 -13
-37 -21 -7 -8 31 -25 24 -29 -12 l-3 -33 -22 23 -21 24 -8 -24 c-4 -12 -7 -29
-5 -37 1 -7 -2 -10 -8 -6 -6 3 -11 17 -11 30 0 13 -4 26 -10 30 -5 3 -7 12 -3
20 3 8 0 15 -6 15 -6 0 -11 -5 -11 -11 0 -5 -4 -8 -9 -5 -5 3 -5 21 -1 40 4
19 4 40 0 47 -5 7 -6 18 -4 24 3 7 -8 20 -23 30 -15 10 -32 24 -36 32 -4 7
-17 13 -28 13 -11 0 -30 5 -41 11 -14 8 -23 8 -31 0 -16 -16 -30 -13 -23 5 4
12 1 14 -14 9 -12 -4 -20 -2 -20 5 0 7 -6 8 -18 1 -11 -6 -28 -5 -48 4 -50 21
-51 35 -4 35 28 0 39 4 34 11 -12 20 -87 3 -109 -25 -22 -28 -45 -34 -46 -13
0 6 -3 21 -6 32 -11 37 -4 153 11 205 13 43 14 64 4 119 -6 37 -9 74 -6 83 9
21 82 32 110 16 28 -16 38 -28 38 -49 0 -9 23 -41 50 -70 28 -30 62 -77 77
-106 19 -39 33 -54 54 -58 55 -12 95 41 60 80 -29 32 -43 65 -35 83 11 24 11
46 0 53 -5 4 1 17 13 30 18 20 30 23 80 22 56 -2 58 -1 55 22 -1 13 4 29 12
36 7 6 11 15 8 20 -3 5 1 9 8 10 21 1 -68 37 -109 45 -21 4 -44 11 -51 17 -8
6 -40 11 -72 11 -32 1 -56 4 -53 9 6 10 -29 8 -47 -3 -12 -8 -10 -10 10 -10
22 0 23 -2 9 -15 -15 -15 -54 -11 -44 5 3 4 -6 10 -18 14 -13 3 -29 17 -35 32
-14 29 -8 43 45 114 18 23 30 46 27 51 -3 5 4 9 15 9 24 0 27 10 9 29 -11 11
-9 12 9 7 12 -4 24 -3 27 2 7 12 -22 38 -31 28 -3 -3 -13 4 -22 16 -16 23 -16
64 0 84 5 6 6 14 3 17 -4 3 -224 7 -490 7 l-484 0 0 -1000z m1390 860 c0 -5
-2 -10 -4 -10 -3 0 -8 5 -11 10 -3 6 -1 10 4 10 6 0 11 -4 11 -10z m280 -49
c0 -6 -4 -13 -10 -16 -5 -3 -10 1 -10 9 0 9 5 16 10 16 6 0 10 -4 10 -9z
m-503 -327 c-3 -3 -12 -4 -19 -1 -8 3 -5 6 6 6 11 1 17 -2 13 -5z m323 -613
c-15 -30 -30 -35 -17 -6 7 14 16 25 20 25 4 0 3 -9 -3 -19z m-406 -66 c3 -13
20 -32 36 -40 32 -17 39 -39 15 -49 -8 -3 -15 -13 -15 -22 0 -10 -6 -14 -14
-11 -8 3 -17 3 -20 -1 -4 -3 -18 -8 -31 -9 -20 -3 -23 0 -18 13 4 12 3 15 -5
10 -6 -4 -20 2 -30 12 -11 11 -26 22 -33 25 -10 4 -8 9 9 22 12 9 22 22 22 29
0 12 53 45 71 46 4 0 10 -11 13 -25z m690 -280 c3 -9 0 -15 -9 -15 -9 0 -12 6
-9 15 4 8 7 15 9 15 2 0 5 -7 9 -15z m-48 -124 c-4 -6 -14 -7 -22 -4 -11 4
-15 0 -14 -13 4 -36 -2 -49 -11 -24 -8 24 -8 23 -6 -6 3 -27 0 -30 -20 -26
-12 2 -20 8 -17 13 3 5 10 6 16 3 7 -5 9 -2 5 8 -7 19 36 63 52 53 6 -3 11 -1
11 6 0 7 3 10 6 6 3 -3 3 -10 0 -16z m169 -71 c3 -6 -1 -7 -9 -4 -18 7 -21 14
-7 14 6 0 13 -4 16 -10z m20 -120 c3 -5 1 -10 -4 -10 -6 0 -11 5 -11 10 0 6 2
10 4 10 3 0 8 -4 11 -10z"/>
<path d="M1762 1618 c-19 -19 -14 -38 13 -48 37 -14 31 -32 -10 -28 -44 3 -59
-15 -40 -52 11 -22 11 -28 -6 -49 -10 -13 -19 -30 -19 -39 0 -9 -10 -26 -21
-39 -18 -18 -20 -25 -9 -38 19 -22 33 -18 52 15 13 23 24 30 48 30 26 0 33 6
46 37 19 44 13 123 -16 198 -11 28 -20 31 -38 13z"/>
<path d="M1637 1283 c-4 -3 -7 -24 -7 -45 0 -34 3 -38 24 -38 28 0 42 15 25
25 -5 4 -8 13 -5 21 11 29 -17 58 -37 37z"/>
<path d="M1570 1190 c0 -5 5 -10 11 -10 5 0 7 5 4 10 -3 6 -8 10 -11 10 -2 0
-4 -4 -4 -10z"/>
<path d="M1012 1158 c-26 -26 -14 -64 35 -102 52 -41 56 -42 73 -21 8 10 9 19
3 28 -16 20 -22 57 -10 57 7 1 0 8 -15 16 -16 8 -28 19 -28 24 0 14 -44 12
-58 -2z"/>
<path d="M1567 1143 c-4 -3 -7 -11 -7 -17 0 -6 5 -5 12 2 6 6 9 14 7 17 -3 3
-9 2 -12 -2z"/>
<path d="M1330 886 c0 -9 5 -16 10 -16 6 0 10 4 10 9 0 6 -4 13 -10 16 -5 3
-10 -1 -10 -9z"/>
<path d="M1250 805 c0 -8 5 -15 10 -15 6 0 10 7 10 15 0 8 -4 15 -10 15 -5 0
-10 -7 -10 -15z"/>
</g>
</svg>
